<?xml version="1.0" encoding="UTF-8"?>
<svg version="1.1" viewBox="0 0 1976 3068" width="1280" height="1280" xmlns="http://www.w3.org/2000/svg">
<path transform="translate(987,30)" d="m0 0h2l2 5 7 33 22 98 21 99 19 95 11 65 17 113 18 119 11 66 10 49 13 54 21 78 21 73 4 11 32 32v2h2l1 3 1 21 9 11 48 56 11 13 12 14 9 11 9 10 9 11 13 15 9 11 9 10 9 11 13 15 11 13 24 28 6 9v105l-1 2-8-1-134-30 1 4 2 26 4 26 5 17 7 11 9 10 9 11 12 14 9 11 12 14 9 11 11 13 9 11 13 15 8 10 12 14 9 11 12 14 9 11 12 14 9 11 11 13 9 11 12 14 9 11 12 14 9 11 12 14 9 11 22 26 9 11 12 14 9 11 22 26 9 11 11 13 9 11 12 14 9 11 12 14 9 11 12 14 9 11 12 14 8 10 12 14 8 10 12 14 9 11 12 14 9 11 12 14 9 11 12 14 9 11 12 14 9 11 12 14 9 11 11 13 9 11 13 15 8 10 1-36-9-1-1-1v-125l4-10 8-11 9-10 10-8 8-5 5 1v575l-3 5-4 2-10-1-14-9-11-10-2-6v-38l-425 46-250 27h-5l-1 25-6 119-1 14-3 2h-40l-6 39-9 59-1 2-34 1h-110v49l-1 11-8 6-6 3-1 141-2 1h-27l-1-1-1-141-13-7-2-3v-59h-141l-3-1-2-8-12-76-2-16h-42l-1-1-3-47-5-100v-12l-16-1-75-8-276-30-314-34 1 3v20l-1 18-6 8-13 10-11 5h-8l-5-6-1-11v-316l1-250 5 1 13 8 11 10 9 12 5 10 1 5v122l-2 2h-8v27l-1 11 5-5 13-15 11-13 9-11 11-13 6-8h2l2-4 11-13 9-11 12-14 9-11 2-3h2l2-4 11-13 9-11 22-26 9-11 2-3h2l2-4 11-13 9-11 11-13 9-11 13-15 8-10 12-14 8-10 8-9 9-11 11-13 9-11 12-14 9-11 12-14 9-11 12-14 11-14 10-11 8-10 12-14 9-11 11-13 9-11 2-3h2l2-4 11-13 9-11 13-15 8-10 12-14 9-11 12-14 9-11 11-13 6-8h2l2-4 11-13 9-11 12-14 9-11 12-14 8-10 8-9 9-11 11-13 9-11 2-3h2l2-4 9-12 5-16 3-15 3-27 1-13 1-4-38 8-101 23h-4v-108l6-8 9-10 9-11 12-14 11-13 24-28 6-8h2l2-4 9-10 9-11 12-14 11-13 7-8 9-11 13-15 12-14 6-8h2l2-4 9-10 9-11 10-12 1-23 34-34 3-7 10-33 14-50 20-75 11-45 8-38 8-44 7-41 7-47 17-113 7-47 9-56 8-44 20-100 16-74 9-42 10-45 13-57z"/>
</svg>
