<?xml version="1.0" encoding="UTF-8"?>
<svg version="1.1" viewBox="0 0 2048 2048" width="1280" height="1280" xmlns="http://www.w3.org/2000/svg">
<path transform="translate(894,190)" d="m0 0 2 1 1 1035 3 20 5 16 8 17 10 15 11 12 8 8 13 9 10 6 17 7 14 4 21 3h14l21-3 17-5 21-10 14-10 12-11 8-9 7-10 8-14 7-19 4-20 1-11 1-1030 4 2 10 14 13 16 13 17 10 13 11 14 8 10 11 13 9 11 15 16 7 8 34 34 8 7 12 11 11 9 13 11 14 11 16 12 17 12 15 10 14 9 13 8 15 9 29 16 15 8 8 7 6 12v12l-16 65-17 70-16 67-13 52-24 102-13 60-13 65-12 65-11 65-9 58-8 57-8 63-8 71-7 75-5 65-4 64-3 60-2 61-2 114-5 5-14 10-20 13-21 12-19 10-29 13-30 11-35 10-29 6-33 5-38 3h-27l-34-2-36-5-25-5-27-7-36-12-24-10-29-14-23-13-19-12-18-13-5-4-1-31-1-69-2-64-3-64-4-68-6-76-7-73-8-72-10-77-11-74-15-90-14-74-13-64-16-72-17-72-17-70-21-87-24-99-2-12 3-10 6-8 8-6 24-13 25-14 21-13 33-22 19-14 16-12 17-14 14-12 10-9 8-7 17-16 19-19 2-3h2l2-4 8-8 7-8 12-14 14-17 11-14 8-10 20-26 12-15 8-11z"/>
<path transform="translate(1502,791)" d="m0 0 2 4v654l-2 37-5 36-7 34-9 31-10 28-13 30-11 22-14 24-18 27-12 16-11 13-9 11-4 5h-2v-37l3-92 5-90 5-69 7-77 9-81 8-63 8-57 10-64 11-64 12-64 17-83 15-66 13-56z"/>
<path transform="translate(545,791)" d="m0 0 2 4 9 42 12 51 15 69 12 60 9 49 11 63 13 84 10 74 9 77 7 70 6 73 4 60 3 57 3 78 1 61h-2l-9-11-13-15-14-19-18-27-9-15-13-25-7-14-13-32-11-33-7-28-5-26-4-30-2-26v-664z"/>
<path transform="translate(1016,480)" d="m0 0h15l15 3 15 8 12 11 7 11 5 11 2 7 1 9v259l-2 18-4 11-8 12-11 11-14 8-13 4-17 1-16-3-17-9-9-8-9-12-5-11-3-13v-272l4-16 8-14 9-10 9-7 12-6z"/>
<path transform="translate(960,911)" d="m0 0 5 1 12 6 15 5 15 3 10 1h12l18-2 21-6 17-8h3v307l-2 15-4 11-8 12-6 7-11 8-13 6-16 3h-9l-12-2-12-5-10-6-9-8-9-13-4-9-3-14z"/>
<path transform="translate(961,288)" d="m0 0h126l1 1v143h-4l-17-8-18-5-13-2h-24l-18 3-18 6-13 7h-3v-144z"/>
</svg>
